<svg width="15" height="15" viewBox="0 0 15 15" fill="none" xmlns="http://www.w3.org/2000/svg">
<path d="M10.3125 1.64062V2.8125H12.4219C12.6084 2.8125 12.7872 2.88658 12.9191 3.01844C13.0509 3.1503 13.125 3.32914 13.125 3.51562C13.125 3.70211 13.0509 3.88095 12.9191 4.01281C12.7872 4.14467 12.6084 4.21875 12.4219 4.21875H2.57812C2.39164 4.21875 2.2128 4.14467 2.08094 4.01281C1.94908 3.88095 1.875 3.70211 1.875 3.51562C1.875 3.32914 1.94908 3.1503 2.08094 3.01844C2.2128 2.88658 2.39164 2.8125 2.57812 2.8125H4.6875V1.64062C4.6875 0.735 5.4225 0 6.32812 0H8.67188C9.5775 0 10.3125 0.735 10.3125 1.64062ZM4.215 6.25781L4.83375 12.4453C4.83956 12.5032 4.86667 12.5568 4.90981 12.5958C4.95295 12.6348 5.00904 12.6563 5.06719 12.6562H9.93281C9.99096 12.6563 10.047 12.6348 10.0902 12.5958C10.1333 12.5568 10.1604 12.5032 10.1662 12.4453L10.785 6.25781C10.8082 6.0762 10.9014 5.91081 11.0447 5.79682C11.188 5.68284 11.3701 5.62924 11.5523 5.64744C11.7345 5.66563 11.9024 5.75418 12.0203 5.89425C12.1382 6.03433 12.1969 6.21487 12.1838 6.3975L11.565 12.585C11.525 12.99 11.3357 13.3656 11.034 13.6387C10.7323 13.9118 10.3398 14.0628 9.93281 14.0625H5.06719C4.66051 14.0624 4.26834 13.9114 3.96676 13.6385C3.66517 13.3657 3.47567 12.9906 3.435 12.5859L2.81625 6.39844C2.80451 6.30534 2.81152 6.21084 2.83687 6.1205C2.86222 6.03016 2.90539 5.9458 2.96385 5.87241C3.0223 5.79901 3.09486 5.73806 3.17724 5.69314C3.25962 5.64822 3.35015 5.62024 3.44351 5.61085C3.53687 5.60147 3.63117 5.61086 3.72084 5.63848C3.81051 5.66611 3.89375 5.7114 3.96565 5.77169C4.03754 5.83198 4.09665 5.90605 4.13947 5.98954C4.18229 6.07303 4.20798 6.16425 4.215 6.25781ZM6.09375 1.64062V2.8125H8.90625V1.64062C8.90625 1.57846 8.88156 1.51885 8.8376 1.4749C8.79365 1.43094 8.73404 1.40625 8.67188 1.40625H6.32812C6.26596 1.40625 6.20635 1.43094 6.1624 1.4749C6.11844 1.51885 6.09375 1.57846 6.09375 1.64062Z" fill="#747474"/>
</svg>
